<svg xmlns="http://www.w3.org/2000/svg" width="2040" height="1050" viewBox="0 0 2040 1050">
  <title>数据处理任务与流程绑定</title>
  <desc>处理任务持续筛选数据，并分别绑定各业务环节的独立流程。</desc>
  <defs>
    <marker id="arrow-blue" markerWidth="10" markerHeight="10" refX="9" refY="3.5" orient="auto" markerUnits="strokeWidth">
      <path d="M0,0 L0,7 L9,3.5 z" fill="#2563EB"/>
    </marker>
    <marker id="arrow-gray" markerWidth="10" markerHeight="10" refX="9" refY="3.5" orient="auto" markerUnits="strokeWidth">
      <path d="M0,0 L0,7 L9,3.5 z" fill="#94A3B8"/>
    </marker>
    <style>
      text { font-family: -apple-system, BlinkMacSystemFont, "PingFang SC", "Microsoft YaHei", Arial, sans-serif; }
    </style>
  </defs>
  <rect width="2040" height="1050" fill="#FFFFFF"/>
  <text x="48" y="48" font-size="30" fill="#1E293B" font-weight="600" text-anchor="start"><tspan x="48" dy="0">数据处理任务与流程绑定</tspan></text>
  <text x="48" y="82" font-size="18" fill="#64748B" font-weight="400" text-anchor="start"><tspan x="48" dy="0">处理任务持续筛选数据，并分别绑定各业务环节的独立流程。</tspan></text>
<rect x="34" y="126" width="342" height="808" rx="16" fill="#F8FAFC" stroke="#CBD5E1" stroke-width="1.5"/><text x="56" y="161" font-size="21" fill="#1E293B" font-weight="600" text-anchor="start"><tspan x="56" dy="0">数据湖</tspan></text><text x="56" y="188" font-size="14" fill="#64748B" font-weight="400" text-anchor="start"><tspan x="56" dy="0">同一数据可命中多个处理任务</tspan></text><rect x="70" y="220" width="270" height="82" rx="10" fill="#FFFFFF" stroke="#94A3B8" stroke-width="1.5"/><text x="205.0" y="250" font-size="16" fill="#1E293B" font-weight="600" text-anchor="middle"><tspan x="205.0" dy="0">rec-001</tspan></text><text x="205.0" y="276" font-size="13" fill="#64748B" font-weight="400" text-anchor="middle"><tspan x="205.0" dy="0">项目 A · 合格</tspan></text><rect x="70" y="332" width="270" height="82" rx="10" fill="#FFFFFF" stroke="#94A3B8" stroke-width="1.5"/><text x="205.0" y="362" font-size="16" fill="#1E293B" font-weight="600" text-anchor="middle"><tspan x="205.0" dy="0">rec-002</tspan></text><text x="205.0" y="388" font-size="13" fill="#64748B" font-weight="400" text-anchor="middle"><tspan x="205.0" dy="0">项目 A · 待处理</tspan></text><rect x="70" y="444" width="270" height="82" rx="10" fill="#FFFFFF" stroke="#94A3B8" stroke-width="1.5"/><text x="205.0" y="474" font-size="16" fill="#1E293B" font-weight="600" text-anchor="middle"><tspan x="205.0" dy="0">rec-003</tspan></text><text x="205.0" y="500" font-size="13" fill="#64748B" font-weight="400" text-anchor="middle"><tspan x="205.0" dy="0">项目 B · DAgger</tspan></text><rect x="70" y="556" width="270" height="82" rx="10" fill="#FFFFFF" stroke="#94A3B8" stroke-width="1.5"/><text x="205.0" y="586" font-size="16" fill="#1E293B" font-weight="600" text-anchor="middle"><tspan x="205.0" dy="0">rec-004</tspan></text><text x="205.0" y="612" font-size="13" fill="#64748B" font-weight="400" text-anchor="middle"><tspan x="205.0" dy="0">项目 A · 合格</tspan></text><rect x="70" y="668" width="270" height="82" rx="10" fill="#FFFFFF" stroke="#94A3B8" stroke-width="1.5"/><text x="205.0" y="698" font-size="16" fill="#1E293B" font-weight="600" text-anchor="middle"><tspan x="205.0" dy="0">rec-005</tspan></text><text x="205.0" y="724" font-size="13" fill="#64748B" font-weight="400" text-anchor="middle"><tspan x="205.0" dy="0">项目 C · 导入</tspan></text><rect x="420" y="126" width="514" height="808" rx="16" fill="#F8FAFC" stroke="#CBD5E1" stroke-width="1.5"/><text x="442" y="161" font-size="21" fill="#1E293B" font-weight="600" text-anchor="start"><tspan x="442" dy="0">数据处理任务</tspan></text><text x="442" y="188" font-size="14" fill="#64748B" font-weight="400" text-anchor="start"><tspan x="442" dy="0">持续筛选与流程绑定</tspan></text><rect x="462" y="210" width="430" height="174" rx="10" fill="#EFF6FF" stroke="#2563EB" stroke-width="1.5"/><text x="677.0" y="240" font-size="18" fill="#1E293B" font-weight="600" text-anchor="middle"><tspan x="677.0" dy="0">处理任务 A</tspan></text><text x="677.0" y="266" font-size="14" fill="#64748B" font-weight="400" text-anchor="middle"><tspan x="677.0" dy="0">状态：开启</tspan><tspan x="677.0" dy="21">项目=A 且结论=合格</tspan><tspan x="677.0" dy="21">水位：2026-07-29 10:30</tspan></text><rect x="506" y="326" width="342" height="40" rx="10" fill="#FFFFFF" stroke="#94A3B8" stroke-width="1.5"/><text x="677.0" y="353.0" font-size="16" fill="#1E293B" font-weight="600" text-anchor="middle"><tspan x="677.0" dy="0">筛选版本 + Flow Binding</tspan></text><rect x="462" y="446" width="430" height="174" rx="10" fill="#EFF6FF" stroke="#2563EB" stroke-width="1.5"/><text x="677.0" y="476" font-size="18" fill="#1E293B" font-weight="600" text-anchor="middle"><tspan x="677.0" dy="0">处理任务 B</tspan></text><text x="677.0" y="502" font-size="14" fill="#64748B" font-weight="400" text-anchor="middle"><tspan x="677.0" dy="0">状态：开启</tspan><tspan x="677.0" dy="21">来源=DAgger</tspan><tspan x="677.0" dy="21">水位：2026-07-29 10:27</tspan></text><rect x="506" y="562" width="342" height="40" rx="10" fill="#FFFFFF" stroke="#94A3B8" stroke-width="1.5"/><text x="677.0" y="589.0" font-size="16" fill="#1E293B" font-weight="600" text-anchor="middle"><tspan x="677.0" dy="0">筛选版本 + Flow Binding</tspan></text><rect x="462" y="682" width="430" height="174" rx="10" fill="#FFFFFF" stroke="#94A3B8" stroke-width="1.5"/><text x="677.0" y="712" font-size="18" fill="#1E293B" font-weight="600" text-anchor="middle"><tspan x="677.0" dy="0">处理任务 C</tspan></text><text x="677.0" y="738" font-size="14" fill="#64748B" font-weight="400" text-anchor="middle"><tspan x="677.0" dy="0">状态：关闭</tspan><tspan x="677.0" dy="21">项目=C</tspan><tspan x="677.0" dy="21">不再接收新数据</tspan></text><rect x="506" y="798" width="342" height="40" rx="10" fill="#FFFFFF" stroke="#94A3B8" stroke-width="1.5"/><text x="677.0" y="825.0" font-size="16" fill="#1E293B" font-weight="600" text-anchor="middle"><tspan x="677.0" dy="0">筛选版本 + Flow Binding</tspan></text><path d="M 340 261 L 402 261 L 402 286 L 462 286" stroke="#2563EB" stroke-width="3" fill="none" marker-end="url(#arrow-blue)"/><path d="M 340 485 L 402 485 L 402 522 L 462 522" stroke="#2563EB" stroke-width="3" fill="none" marker-end="url(#arrow-blue)"/><path d="M 340 709 L 402 709 L 402 758 L 462 758" stroke="#94A3B8" stroke-width="2" fill="none" marker-end="url(#arrow-gray)" stroke-dasharray="7 6"/><rect x="978" y="126" width="1028" height="808" rx="16" fill="#F8FAFC" stroke="#CBD5E1" stroke-width="1.5"/><text x="1000" y="161" font-size="21" fill="#1E293B" font-weight="600" text-anchor="start"><tspan x="1000" dy="0">业务环节与独立流程</tspan></text><text x="1000" y="188" font-size="14" fill="#64748B" font-weight="400" text-anchor="start"><tspan x="1000" dy="0">每个绑定引用已发布的 Flow Version</tspan></text><rect x="1030" y="190" width="260" height="650" rx="16" fill="#F8FAFC" stroke="#CBD5E1" stroke-width="1.5" stroke-dasharray="7 6"/><text x="1052" y="225" font-size="21" fill="#1E293B" font-weight="600" text-anchor="start"><tspan x="1052" dy="0">质检环节</tspan></text><text x="1052" y="252" font-size="14" fill="#64748B" font-weight="400" text-anchor="start"><tspan x="1052" dy="0">产品侧分组</tspan></text><rect x="1365" y="190" width="260" height="650" rx="16" fill="#F8FAFC" stroke="#CBD5E1" stroke-width="1.5" stroke-dasharray="7 6"/><text x="1387" y="225" font-size="21" fill="#1E293B" font-weight="600" text-anchor="start"><tspan x="1387" dy="0">标注环节</tspan></text><text x="1387" y="252" font-size="14" fill="#64748B" font-weight="400" text-anchor="start"><tspan x="1387" dy="0">产品侧分组</tspan></text><rect x="1700" y="190" width="260" height="650" rx="16" fill="#F8FAFC" stroke="#CBD5E1" stroke-width="1.5" stroke-dasharray="7 6"/><text x="1722" y="225" font-size="21" fill="#1E293B" font-weight="600" text-anchor="start"><tspan x="1722" dy="0">验收环节</tspan></text><text x="1722" y="252" font-size="14" fill="#64748B" font-weight="400" text-anchor="start"><tspan x="1722" dy="0">产品侧分组</tspan></text><rect x="1052" y="252" width="216" height="86" rx="10" fill="#FFFFFF" stroke="#94A3B8" stroke-width="1.5"/><text x="1160.0" y="282" font-size="16" fill="#1E293B" font-weight="600" text-anchor="middle"><tspan x="1160.0" dy="0">自动质检 v3</tspan></text><text x="1160.0" y="308" font-size="13" fill="#64748B" font-weight="400" text-anchor="middle"><tspan x="1160.0" dy="0">独立 Input / Output</tspan></text><rect x="1052" y="394" width="216" height="86" rx="10" fill="#FFFFFF" stroke="#94A3B8" stroke-width="1.5"/><text x="1160.0" y="424" font-size="16" fill="#1E293B" font-weight="600" text-anchor="middle"><tspan x="1160.0" dy="0">人工抽检 v2</tspan></text><text x="1160.0" y="450" font-size="13" fill="#64748B" font-weight="400" text-anchor="middle"><tspan x="1160.0" dy="0">独立 Input / Output</tspan></text><rect x="1052" y="536" width="216" height="86" rx="10" fill="#FFFFFF" stroke="#94A3B8" stroke-width="1.5"/><text x="1160.0" y="566" font-size="16" fill="#1E293B" font-weight="600" text-anchor="middle"><tspan x="1160.0" dy="0">DAgger 检查 v1</tspan></text><text x="1160.0" y="592" font-size="13" fill="#64748B" font-weight="400" text-anchor="middle"><tspan x="1160.0" dy="0">独立 Input / Output</tspan></text><rect x="1387" y="252" width="216" height="86" rx="10" fill="#FFFFFF" stroke="#94A3B8" stroke-width="1.5"/><text x="1495.0" y="282" font-size="16" fill="#1E293B" font-weight="600" text-anchor="middle"><tspan x="1495.0" dy="0">端到端标注 v2</tspan></text><text x="1495.0" y="308" font-size="13" fill="#64748B" font-weight="400" text-anchor="middle"><tspan x="1495.0" dy="0">独立 Input / Output</tspan></text><rect x="1387" y="394" width="216" height="86" rx="10" fill="#FFFFFF" stroke="#94A3B8" stroke-width="1.5"/><text x="1495.0" y="424" font-size="16" fill="#1E293B" font-weight="600" text-anchor="middle"><tspan x="1495.0" dy="0">两轮人工标注 v2</tspan></text><text x="1495.0" y="450" font-size="13" fill="#64748B" font-weight="400" text-anchor="middle"><tspan x="1495.0" dy="0">独立 Input / Output</tspan></text><rect x="1387" y="536" width="216" height="86" rx="10" fill="#FFFFFF" stroke="#94A3B8" stroke-width="1.5"/><text x="1495.0" y="566" font-size="16" fill="#1E293B" font-weight="600" text-anchor="middle"><tspan x="1495.0" dy="0">新规实验标注 v1</tspan></text><text x="1495.0" y="592" font-size="13" fill="#64748B" font-weight="400" text-anchor="middle"><tspan x="1495.0" dy="0">独立 Input / Output</tspan></text><rect x="1722" y="252" width="216" height="86" rx="10" fill="#FFFFFF" stroke="#94A3B8" stroke-width="1.5"/><text x="1830.0" y="282" font-size="16" fill="#1E293B" font-weight="600" text-anchor="middle"><tspan x="1830.0" dy="0">数据验收 v1</tspan></text><text x="1830.0" y="308" font-size="13" fill="#64748B" font-weight="400" text-anchor="middle"><tspan x="1830.0" dy="0">独立 Input / Output</tspan></text><rect x="1722" y="394" width="216" height="86" rx="10" fill="#FFFFFF" stroke="#94A3B8" stroke-width="1.5"/><text x="1830.0" y="424" font-size="16" fill="#1E293B" font-weight="600" text-anchor="middle"><tspan x="1830.0" dy="0">抽样验收 v2</tspan></text><text x="1830.0" y="450" font-size="13" fill="#64748B" font-weight="400" text-anchor="middle"><tspan x="1830.0" dy="0">独立 Input / Output</tspan></text><path d="M 892 280 L 956 280 L 956 295 L 1052 295" stroke="#2563EB" stroke-width="3" fill="none" marker-end="url(#arrow-blue)"/><path d="M 892 522 L 956 522 L 956 579 L 1052 579" stroke="#2563EB" stroke-width="3" fill="none" marker-end="url(#arrow-blue)"/><path d="M 892 302 L 940 302 L 940 295 L 1387 295" stroke="#94A3B8" stroke-width="2" fill="none" marker-end="url(#arrow-gray)"/><path d="M 892 544 L 926 544 L 926 437 L 1387 437" stroke="#94A3B8" stroke-width="2" fill="none" marker-end="url(#arrow-gray)"/><path d="M 892 324 L 912 324 L 912 295 L 1722 295" stroke="#94A3B8" stroke-width="2" fill="none" marker-end="url(#arrow-gray)"/><path d="M 892 566 L 900 566 L 900 437 L 1722 437" stroke="#94A3B8" stroke-width="2" fill="none" marker-end="url(#arrow-gray)"/><text x="1098" y="898" font-size="13" fill="#1E293B" font-weight="500" text-anchor="middle"><tspan x="1098" dy="0">处理任务 A：自动质检 v3 → 端到端标注 v2 → 数据验收 v1</tspan></text><text x="1592" y="898" font-size="13" fill="#1E293B" font-weight="500" text-anchor="middle"><tspan x="1592" dy="0">处理任务 B：DAgger 检查 v1 → 两轮人工标注 v2 → 抽样验收 v2</tspan></text><rect x="420" y="966" width="1586" height="58" rx="10" fill="#EFF6FF" stroke="#2563EB" stroke-width="1.5"/><text x="1213" y="1003" font-size="15" fill="#1E293B" font-weight="500" text-anchor="middle"><tspan x="1213" dy="0">业务环节只负责组织和衔接；底层引擎最终执行的仍是统一 Node + Transition 图。</tspan></text></svg>
