<svg xmlns="http://www.w3.org/2000/svg" width="2000" height="1180" viewBox="0 0 2000 1180">
  <title>产品架构</title>
  <desc>通过业务应用、配置定义、核心引擎和平台底座四层划分职责。</desc>
  <defs>
    <marker id="arrow-blue" markerWidth="10" markerHeight="10" refX="9" refY="3.5" orient="auto" markerUnits="strokeWidth">
      <path d="M0,0 L0,7 L9,3.5 z" fill="#2563EB"/>
    </marker>
    <marker id="arrow-gray" markerWidth="10" markerHeight="10" refX="9" refY="3.5" orient="auto" markerUnits="strokeWidth">
      <path d="M0,0 L0,7 L9,3.5 z" fill="#94A3B8"/>
    </marker>
    <style>
      text { font-family: -apple-system, BlinkMacSystemFont, "PingFang SC", "Microsoft YaHei", Arial, sans-serif; }
    </style>
  </defs>
  <rect width="2000" height="1180" fill="#FFFFFF"/>
  <text x="48" y="48" font-size="30" fill="#1E293B" font-weight="600" text-anchor="start"><tspan x="48" dy="0">产品架构</tspan></text>
  <text x="48" y="82" font-size="18" fill="#64748B" font-weight="400" text-anchor="start"><tspan x="48" dy="0">通过业务应用、配置定义、核心引擎和平台底座四层划分职责。</tspan></text>
<rect x="32" y="124" width="210" height="252" rx="14" fill="#F1F5F9" stroke="#CBD5E1" stroke-width="1.5"/><text x="137" y="168" font-size="21" fill="#1E293B" font-weight="600" text-anchor="middle"><tspan x="137" dy="0">业务应用层</tspan></text><text x="137" y="200" font-size="13" fill="#64748B" font-weight="400" text-anchor="middle"><tspan x="137" dy="0">面向角色的产品入口</tspan></text><rect x="262" y="124" width="1706" height="252" rx="14" fill="#FFFFFF" stroke="#CBD5E1" stroke-width="1.5"/><rect x="32" y="406" width="210" height="196" rx="14" fill="#F1F5F9" stroke="#CBD5E1" stroke-width="1.5"/><text x="137" y="450" font-size="21" fill="#1E293B" font-weight="600" text-anchor="middle"><tspan x="137" dy="0">配置与定义层</tspan></text><text x="137" y="482" font-size="13" fill="#64748B" font-weight="400" text-anchor="middle"><tspan x="137" dy="0">发布不可变配置版本</tspan></text><rect x="262" y="406" width="1706" height="196" rx="14" fill="#FFFFFF" stroke="#CBD5E1" stroke-width="1.5"/><rect x="32" y="632" width="210" height="244" rx="14" fill="#F1F5F9" stroke="#CBD5E1" stroke-width="1.5"/><text x="137" y="676" font-size="21" fill="#1E293B" font-weight="600" text-anchor="middle"><tspan x="137" dy="0">核心引擎层</tspan></text><text x="137" y="708" font-size="13" fill="#64748B" font-weight="400" text-anchor="middle"><tspan x="137" dy="0">维护运行状态与执行语义</tspan></text><rect x="262" y="632" width="1706" height="244" rx="14" fill="#FFFFFF" stroke="#CBD5E1" stroke-width="1.5"/><rect x="32" y="906" width="210" height="166" rx="14" fill="#F1F5F9" stroke="#CBD5E1" stroke-width="1.5"/><text x="137" y="950" font-size="21" fill="#1E293B" font-weight="600" text-anchor="middle"><tspan x="137" dy="0">数据与平台底座</tspan></text><text x="137" y="982" font-size="13" fill="#64748B" font-weight="400" text-anchor="middle"><tspan x="137" dy="0">提供共享技术能力</tspan></text><rect x="262" y="906" width="1706" height="166" rx="14" fill="#FFFFFF" stroke="#CBD5E1" stroke-width="1.5"/><rect x="292" y="158" width="372" height="184" rx="16" fill="#F8FAFC" stroke="#CBD5E1" stroke-width="1.5"/><text x="314" y="193" font-size="21" fill="#1E293B" font-weight="600" text-anchor="start"><tspan x="314" dy="0">任务管理</tspan></text><rect x="310" y="210" width="336" height="32" rx="10" fill="#FFFFFF" stroke="#94A3B8" stroke-width="1.5"/><text x="478.0" y="233.0" font-size="16" fill="#1E293B" font-weight="600" text-anchor="middle"><tspan x="478.0" dy="0">采集任务</tspan></text><rect x="310" y="250" width="336" height="32" rx="10" fill="#FFFFFF" stroke="#94A3B8" stroke-width="1.5"/><text x="478.0" y="273.0" font-size="16" fill="#1E293B" font-weight="600" text-anchor="middle"><tspan x="478.0" dy="0">处理任务</tspan></text><rect x="310" y="290" width="336" height="32" rx="10" fill="#FFFFFF" stroke="#94A3B8" stroke-width="1.5"/><text x="478.0" y="313.0" font-size="16" fill="#1E293B" font-weight="600" text-anchor="middle"><tspan x="478.0" dy="0">分配管理</tspan></text><rect x="706" y="158" width="372" height="184" rx="16" fill="#F8FAFC" stroke="#CBD5E1" stroke-width="1.5"/><text x="728" y="193" font-size="21" fill="#1E293B" font-weight="600" text-anchor="start"><tspan x="728" dy="0">数据资产</tspan></text><rect x="724" y="210" width="336" height="32" rx="10" fill="#FFFFFF" stroke="#94A3B8" stroke-width="1.5"/><text x="892.0" y="233.0" font-size="16" fill="#1E293B" font-weight="600" text-anchor="middle"><tspan x="892.0" dy="0">数据管理</tspan></text><rect x="724" y="250" width="336" height="32" rx="10" fill="#FFFFFF" stroke="#94A3B8" stroke-width="1.5"/><text x="892.0" y="273.0" font-size="16" fill="#1E293B" font-weight="600" text-anchor="middle"><tspan x="892.0" dy="0">数据集管理</tspan></text><rect x="1120" y="158" width="372" height="184" rx="16" fill="#F8FAFC" stroke="#CBD5E1" stroke-width="1.5"/><text x="1142" y="193" font-size="21" fill="#1E293B" font-weight="600" text-anchor="start"><tspan x="1142" dy="0">工作台</tspan></text><rect x="1138" y="210" width="336" height="32" rx="10" fill="#FFFFFF" stroke="#94A3B8" stroke-width="1.5"/><text x="1306.0" y="233.0" font-size="16" fill="#1E293B" font-weight="600" text-anchor="middle"><tspan x="1306.0" dy="0">工作台</tspan></text><rect x="1138" y="250" width="336" height="32" rx="10" fill="#FFFFFF" stroke="#94A3B8" stroke-width="1.5"/><text x="1306.0" y="273.0" font-size="16" fill="#1E293B" font-weight="600" text-anchor="middle"><tspan x="1306.0" dy="0">个人看板</tspan></text><rect x="1534" y="158" width="372" height="184" rx="16" fill="#F8FAFC" stroke="#CBD5E1" stroke-width="1.5"/><text x="1556" y="193" font-size="21" fill="#1E293B" font-weight="600" text-anchor="start"><tspan x="1556" dy="0">运营管理</tspan></text><rect x="1552" y="210" width="336" height="32" rx="10" fill="#FFFFFF" stroke="#94A3B8" stroke-width="1.5"/><text x="1720.0" y="233.0" font-size="16" fill="#1E293B" font-weight="600" text-anchor="middle"><tspan x="1720.0" dy="0">供应商管理</tspan></text><rect x="1552" y="250" width="336" height="32" rx="10" fill="#FFFFFF" stroke="#94A3B8" stroke-width="1.5"/><text x="1720.0" y="273.0" font-size="16" fill="#1E293B" font-weight="600" text-anchor="middle"><tspan x="1720.0" dy="0">人员管理</tspan></text><rect x="1552" y="290" width="336" height="32" rx="10" fill="#FFFFFF" stroke="#94A3B8" stroke-width="1.5"/><text x="1720.0" y="313.0" font-size="16" fill="#1E293B" font-weight="600" text-anchor="middle"><tspan x="1720.0" dy="0">权限管理</tspan></text><rect x="292" y="438" width="510" height="132" rx="16" fill="#F8FAFC" stroke="#CBD5E1" stroke-width="1.5"/><text x="314" y="473" font-size="21" fill="#1E293B" font-weight="600" text-anchor="start"><tspan x="314" dy="0">工作流</tspan></text><rect x="310" y="482" width="224" height="31" rx="10" fill="#FFFFFF" stroke="#94A3B8" stroke-width="1.5"/><text x="422.0" y="504.5" font-size="16" fill="#1E293B" font-weight="600" text-anchor="middle"><tspan x="422.0" dy="0">流程管理</tspan></text><rect x="552" y="482" width="224" height="31" rx="10" fill="#FFFFFF" stroke="#94A3B8" stroke-width="1.5"/><text x="664.0" y="504.5" font-size="16" fill="#1E293B" font-weight="600" text-anchor="middle"><tspan x="664.0" dy="0">执行记录</tspan></text><rect x="310" y="521" width="224" height="31" rx="10" fill="#FFFFFF" stroke="#94A3B8" stroke-width="1.5"/><text x="422.0" y="543.5" font-size="16" fill="#1E293B" font-weight="600" text-anchor="middle"><tspan x="422.0" dy="0">算子管理</tspan></text><rect x="552" y="521" width="224" height="31" rx="10" fill="#FFFFFF" stroke="#94A3B8" stroke-width="1.5"/><text x="664.0" y="543.5" font-size="16" fill="#1E293B" font-weight="600" text-anchor="middle"><tspan x="664.0" dy="0">工作台管理</tspan></text><rect x="844" y="438" width="510" height="132" rx="16" fill="#F8FAFC" stroke="#CBD5E1" stroke-width="1.5"/><text x="866" y="473" font-size="21" fill="#1E293B" font-weight="600" text-anchor="start"><tspan x="866" dy="0">配置管理</tspan></text><rect x="862" y="482" width="224" height="31" rx="10" fill="#FFFFFF" stroke="#94A3B8" stroke-width="1.5"/><text x="974.0" y="504.5" font-size="16" fill="#1E293B" font-weight="600" text-anchor="middle"><tspan x="974.0" dy="0">项目管理</tspan></text><rect x="1104" y="482" width="224" height="31" rx="10" fill="#FFFFFF" stroke="#94A3B8" stroke-width="1.5"/><text x="1216.0" y="504.5" font-size="16" fill="#1E293B" font-weight="600" text-anchor="middle"><tspan x="1216.0" dy="0">规则管理</tspan></text><rect x="862" y="521" width="224" height="31" rx="10" fill="#FFFFFF" stroke="#94A3B8" stroke-width="1.5"/><text x="974.0" y="543.5" font-size="16" fill="#1E293B" font-weight="600" text-anchor="middle"><tspan x="974.0" dy="0">场景管理</tspan></text><rect x="1104" y="521" width="224" height="31" rx="10" fill="#FFFFFF" stroke="#94A3B8" stroke-width="1.5"/><text x="1216.0" y="543.5" font-size="16" fill="#1E293B" font-weight="600" text-anchor="middle"><tspan x="1216.0" dy="0">标签管理</tspan></text><rect x="1396" y="438" width="510" height="132" rx="16" fill="#F8FAFC" stroke="#CBD5E1" stroke-width="1.5"/><text x="1418" y="473" font-size="21" fill="#1E293B" font-weight="600" text-anchor="start"><tspan x="1418" dy="0">组织与授权</tspan></text><rect x="1414" y="482" width="224" height="31" rx="10" fill="#FFFFFF" stroke="#94A3B8" stroke-width="1.5"/><text x="1526.0" y="504.5" font-size="16" fill="#1E293B" font-weight="600" text-anchor="middle"><tspan x="1526.0" dy="0">人员</tspan></text><rect x="1656" y="482" width="224" height="31" rx="10" fill="#FFFFFF" stroke="#94A3B8" stroke-width="1.5"/><text x="1768.0" y="504.5" font-size="16" fill="#1E293B" font-weight="600" text-anchor="middle"><tspan x="1768.0" dy="0">角色</tspan></text><rect x="1414" y="521" width="224" height="31" rx="10" fill="#FFFFFF" stroke="#94A3B8" stroke-width="1.5"/><text x="1526.0" y="543.5" font-size="16" fill="#1E293B" font-weight="600" text-anchor="middle"><tspan x="1526.0" dy="0">用户组</tspan></text><rect x="1656" y="521" width="224" height="31" rx="10" fill="#FFFFFF" stroke="#94A3B8" stroke-width="1.5"/><text x="1768.0" y="543.5" font-size="16" fill="#1E293B" font-weight="600" text-anchor="middle"><tspan x="1768.0" dy="0">授权（静态资源）</tspan></text><rect x="286" y="684" width="246" height="142" rx="10" fill="#FFFFFF" stroke="#94A3B8" stroke-width="1.5"/><text x="409.0" y="714" font-size="16" fill="#1E293B" font-weight="600" text-anchor="middle"><tspan x="409.0" dy="0">持续接入服务</tspan></text><text x="409.0" y="740" font-size="13" fill="#64748B" font-weight="400" text-anchor="middle"><tspan x="409.0" dy="0">筛选版本</tspan><tspan x="409.0" dy="21">处理水位</tspan></text><rect x="562" y="684" width="246" height="142" rx="10" fill="#FFFFFF" stroke="#94A3B8" stroke-width="1.5"/><text x="685.0" y="714" font-size="16" fill="#1E293B" font-weight="600" text-anchor="middle"><tspan x="685.0" dy="0">工作流引擎</tspan></text><text x="685.0" y="740" font-size="13" fill="#64748B" font-weight="400" text-anchor="middle"><tspan x="685.0" dy="0">Flow / Node Run</tspan><tspan x="685.0" dy="21">条件与回流</tspan></text><rect x="838" y="684" width="246" height="142" rx="10" fill="#FFFFFF" stroke="#94A3B8" stroke-width="1.5"/><text x="961.0" y="714" font-size="16" fill="#1E293B" font-weight="600" text-anchor="middle"><tspan x="961.0" dy="0">算子运行时</tspan></text><text x="961.0" y="740" font-size="13" fill="#64748B" font-weight="400" text-anchor="middle"><tspan x="961.0" dy="0">镜像与参数</tspan><tspan x="961.0" dy="21">重试与资源</tspan></text><rect x="1114" y="684" width="246" height="142" rx="10" fill="#FFFFFF" stroke="#94A3B8" stroke-width="1.5"/><text x="1237.0" y="714" font-size="16" fill="#1E293B" font-weight="600" text-anchor="middle"><tspan x="1237.0" dy="0">人工任务服务</tspan></text><text x="1237.0" y="740" font-size="13" fill="#64748B" font-weight="400" text-anchor="middle"><tspan x="1237.0" dy="0">用户组路由</tspan><tspan x="1237.0" dy="21">任务池与锁</tspan></text><rect x="1390" y="684" width="246" height="142" rx="10" fill="#FFFFFF" stroke="#94A3B8" stroke-width="1.5"/><text x="1513.0" y="714" font-size="16" fill="#1E293B" font-weight="600" text-anchor="middle"><tspan x="1513.0" dy="0">工作台运行时</tspan></text><text x="1513.0" y="740" font-size="13" fill="#64748B" font-weight="400" text-anchor="middle"><tspan x="1513.0" dy="0">组件渲染</tspan><tspan x="1513.0" dy="21">校验与提交</tspan></text><rect x="1666" y="684" width="246" height="142" rx="10" fill="#FFFFFF" stroke="#94A3B8" stroke-width="1.5"/><text x="1789.0" y="714" font-size="16" fill="#1E293B" font-weight="600" text-anchor="middle"><tspan x="1789.0" dy="0">数据版本服务</tspan></text><text x="1789.0" y="740" font-size="13" fill="#64748B" font-weight="400" text-anchor="middle"><tspan x="1789.0" dy="0">结果版本</tspan><tspan x="1789.0" dy="21">快照与血缘</tspan></text><rect x="292" y="948" width="372" height="80" rx="10" fill="#FFFFFF" stroke="#94A3B8" stroke-width="1.5"/><text x="478.0" y="978" font-size="16" fill="#1E293B" font-weight="600" text-anchor="middle"><tspan x="478.0" dy="0">对象与元数据存储</tspan></text><text x="478.0" y="1004" font-size="13" fill="#64748B" font-weight="400" text-anchor="middle"><tspan x="478.0" dy="0">Recording · 版本 · 配置</tspan></text><rect x="706" y="948" width="372" height="80" rx="10" fill="#FFFFFF" stroke="#94A3B8" stroke-width="1.5"/><text x="892.0" y="978" font-size="16" fill="#1E293B" font-weight="600" text-anchor="middle"><tspan x="892.0" dy="0">事件与任务队列</tspan></text><text x="892.0" y="1004" font-size="13" fill="#64748B" font-weight="400" text-anchor="middle"><tspan x="892.0" dy="0">持续接入 · 异步执行</tspan></text><rect x="1120" y="948" width="372" height="80" rx="10" fill="#FFFFFF" stroke="#94A3B8" stroke-width="1.5"/><text x="1306.0" y="978" font-size="16" fill="#1E293B" font-weight="600" text-anchor="middle"><tspan x="1306.0" dy="0">权限与审计</tspan></text><text x="1306.0" y="1004" font-size="13" fill="#64748B" font-weight="400" text-anchor="middle"><tspan x="1306.0" dy="0">租户 · 项目 · 操作日志</tspan></text><rect x="1534" y="948" width="372" height="80" rx="10" fill="#FFFFFF" stroke="#94A3B8" stroke-width="1.5"/><text x="1720.0" y="978" font-size="16" fill="#1E293B" font-weight="600" text-anchor="middle"><tspan x="1720.0" dy="0">检索与开放接口</tspan></text><text x="1720.0" y="1004" font-size="13" fill="#64748B" font-weight="400" text-anchor="middle"><tspan x="1720.0" dy="0">查询 · Webhook · API</tspan></text><text x="1000" y="1120" font-size="15" fill="#64748B" font-weight="400" text-anchor="middle"><tspan x="1000" dy="0">页面发起命令并读取状态；配置层产出版本；引擎层维护运行事实；底座不承载业务状态机。</tspan></text></svg>
