<svg xmlns="http://www.w3.org/2000/svg" width="2060" height="1120" viewBox="0 0 2060 1120">
  <title>用户 × 业务流程泳道</title>
  <desc>角色控制菜单和数据范围；用户组控制人工任务领取资格。</desc>
  <defs>
    <marker id="arrow-blue" markerWidth="10" markerHeight="10" refX="9" refY="3.5" orient="auto" markerUnits="strokeWidth">
      <path d="M0,0 L0,7 L9,3.5 z" fill="#2563EB"/>
    </marker>
    <marker id="arrow-gray" markerWidth="10" markerHeight="10" refX="9" refY="3.5" orient="auto" markerUnits="strokeWidth">
      <path d="M0,0 L0,7 L9,3.5 z" fill="#94A3B8"/>
    </marker>
    <style>
      text { font-family: -apple-system, BlinkMacSystemFont, "PingFang SC", "Microsoft YaHei", Arial, sans-serif; }
    </style>
  </defs>
  <rect width="2060" height="1120" fill="#FFFFFF"/>
  <text x="48" y="48" font-size="30" fill="#1E293B" font-weight="600" text-anchor="start"><tspan x="48" dy="0">用户 × 业务流程泳道</tspan></text>
  <text x="48" y="82" font-size="18" fill="#64748B" font-weight="400" text-anchor="start"><tspan x="48" dy="0">角色控制菜单和数据范围；用户组控制人工任务领取资格。</tspan></text>

<defs>
  <marker id="swimlane-arrow" markerWidth="7" markerHeight="7"
          refX="6.5" refY="3.5" orient="auto"
          markerUnits="userSpaceOnUse">
    <path d="M0,0 L6.5,3.5 L0,7 Z" fill="#2563EB"/>
  </marker>
</defs>
<rect x="310" y="164" width="270" height="76" rx="10" fill="#EFF6FF" stroke="#CBD5E1" stroke-width="1.5"/><text x="445.0" y="198" font-size="17" fill="#1E293B" font-weight="600" text-anchor="middle"><tspan x="445.0" dy="0">项目准备</tspan></text><text x="445.0" y="222" font-size="12" fill="#64748B" font-weight="500" text-anchor="middle"><tspan x="445.0" dy="0">01</tspan></text><rect x="588" y="164" width="270" height="76" rx="10" fill="#EFF6FF" stroke="#CBD5E1" stroke-width="1.5"/><text x="723.0" y="198" font-size="17" fill="#1E293B" font-weight="600" text-anchor="middle"><tspan x="723.0" dy="0">数据进入</tspan></text><text x="723.0" y="222" font-size="12" fill="#64748B" font-weight="500" text-anchor="middle"><tspan x="723.0" dy="0">02</tspan></text><rect x="866" y="164" width="270" height="76" rx="10" fill="#EFF6FF" stroke="#CBD5E1" stroke-width="1.5"/><text x="1001.0" y="198" font-size="17" fill="#1E293B" font-weight="600" text-anchor="middle"><tspan x="1001.0" dy="0">任务与流程配置</tspan></text><text x="1001.0" y="222" font-size="12" fill="#64748B" font-weight="500" text-anchor="middle"><tspan x="1001.0" dy="0">03</tspan></text><rect x="1144" y="164" width="270" height="76" rx="10" fill="#EFF6FF" stroke="#CBD5E1" stroke-width="1.5"/><text x="1279.0" y="198" font-size="17" fill="#1E293B" font-weight="600" text-anchor="middle"><tspan x="1279.0" dy="0">执行与协作</tspan></text><text x="1279.0" y="222" font-size="12" fill="#64748B" font-weight="500" text-anchor="middle"><tspan x="1279.0" dy="0">04</tspan></text><rect x="1422" y="164" width="270" height="76" rx="10" fill="#EFF6FF" stroke="#CBD5E1" stroke-width="1.5"/><text x="1557.0" y="198" font-size="17" fill="#1E293B" font-weight="600" text-anchor="middle"><tspan x="1557.0" dy="0">数据资产发布</tspan></text><text x="1557.0" y="222" font-size="12" fill="#64748B" font-weight="500" text-anchor="middle"><tspan x="1557.0" dy="0">05</tspan></text><rect x="1700" y="164" width="270" height="76" rx="10" fill="#F8FAFC" stroke="#CBD5E1" stroke-width="1.5"/><text x="1835.0" y="198" font-size="17" fill="#1E293B" font-weight="600" text-anchor="middle"><tspan x="1835.0" dy="0">运行与运营</tspan></text><text x="1835.0" y="222" font-size="12" fill="#64748B" font-weight="500" text-anchor="middle"><tspan x="1835.0" dy="0">06</tspan></text><rect x="34" y="164" width="246" height="76" rx="10" fill="#F1F5F9" stroke="#CBD5E1" stroke-width="1.5"/><text x="157" y="197" font-size="18" fill="#1E293B" font-weight="600" text-anchor="middle"><tspan x="157" dy="0">用户角色</tspan></text><text x="157" y="222" font-size="12" fill="#64748B" font-weight="400" text-anchor="middle"><tspan x="157" dy="0">角色决定菜单与数据范围</tspan></text><rect x="34" y="258" width="246" height="114" rx="10" fill="#FFFFFF" stroke="#CBD5E1" stroke-width="1.5"/><text x="54" y="296" font-size="17" fill="#1E293B" font-weight="600" text-anchor="start"><tspan x="54" dy="0">项目 / 数据运营负责人</tspan></text><text x="54" y="326" font-size="13" fill="#64748B" font-weight="400" text-anchor="start"><tspan x="54" dy="0">对范围、进度和交付负责</tspan></text><rect x="310" y="258" width="270" height="114" rx="8" fill="#EFF6FF" stroke="#2563EB" stroke-width="1.5"/><text x="328" y="300" font-size="15" fill="#1E293B" font-weight="600" text-anchor="start"><tspan x="328" dy="0">定义目标与范围</tspan></text><text x="328" y="330" font-size="12" fill="#2563EB" font-weight="500" text-anchor="start"><tspan x="328" dy="0">核心主线</tspan></text><rect x="588" y="258" width="270" height="114" rx="8" fill="#FFFFFF" stroke="#CBD5E1" stroke-width="1.5" stroke-dasharray="6 7"/><text x="606" y="300" font-size="15" fill="#1E293B" font-weight="400" text-anchor="start"><tspan x="606" dy="0">确认输入口径</tspan></text><text x="606" y="330" font-size="12" fill="#64748B" font-weight="500" text-anchor="start"><tspan x="606" dy="0">参与 / 支持</tspan></text><rect x="866" y="258" width="270" height="114" rx="8" fill="#FFFFFF" stroke="#CBD5E1" stroke-width="1.5"/><text x="884" y="300" font-size="15" fill="#1E293B" font-weight="500" text-anchor="start"><tspan x="884" dy="0">选择处理方案</tspan></text><text x="884" y="330" font-size="12" fill="#64748B" font-weight="500" text-anchor="start"><tspan x="884" dy="0">主责</tspan></text><rect x="1144" y="258" width="270" height="114" rx="8" fill="#FFFFFF" stroke="#CBD5E1" stroke-width="1.5" stroke-dasharray="6 7"/><text x="1162" y="300" font-size="15" fill="#1E293B" font-weight="400" text-anchor="start"><tspan x="1162" dy="0">跟踪核心进度</tspan></text><text x="1162" y="330" font-size="12" fill="#64748B" font-weight="500" text-anchor="start"><tspan x="1162" dy="0">参与 / 支持</tspan></text><rect x="1422" y="258" width="270" height="114" rx="8" fill="#FFFFFF" stroke="#CBD5E1" stroke-width="1.5"/><text x="1440" y="300" font-size="15" fill="#1E293B" font-weight="500" text-anchor="start"><tspan x="1440" dy="0">确认版本交付</tspan></text><text x="1440" y="330" font-size="12" fill="#64748B" font-weight="500" text-anchor="start"><tspan x="1440" dy="0">主责</tspan></text><rect x="1700" y="258" width="270" height="114" rx="8" fill="#FFFFFF" stroke="#CBD5E1" stroke-width="1.5"/><text x="1718" y="300" font-size="15" fill="#1E293B" font-weight="500" text-anchor="start"><tspan x="1718" dy="0">复盘周期与成本</tspan></text><text x="1718" y="330" font-size="12" fill="#64748B" font-weight="500" text-anchor="start"><tspan x="1718" dy="0">主责</tspan></text><rect x="34" y="382" width="246" height="114" rx="10" fill="#FFFFFF" stroke="#CBD5E1" stroke-width="1.5"/><text x="54" y="420" font-size="17" fill="#1E293B" font-weight="600" text-anchor="start"><tspan x="54" dy="0">工厂管理员</tspan></text><text x="54" y="450" font-size="13" fill="#64748B" font-weight="400" text-anchor="start"><tspan x="54" dy="0">组织生产与资源</tspan></text><rect x="310" y="382" width="270" height="114" rx="8" fill="#FFFFFF" stroke="#CBD5E1" stroke-width="1.5"/><text x="328" y="424" font-size="15" fill="#1E293B" font-weight="500" text-anchor="start"><tspan x="328" dy="0">配置组织与人员</tspan></text><text x="328" y="454" font-size="12" fill="#64748B" font-weight="500" text-anchor="start"><tspan x="328" dy="0">主责</tspan></text><rect x="588" y="382" width="270" height="114" rx="8" fill="#FFFFFF" stroke="#CBD5E1" stroke-width="1.5" stroke-dasharray="6 7"/><text x="606" y="424" font-size="15" fill="#1E293B" font-weight="400" text-anchor="start"><tspan x="606" dy="0">查看数据进入</tspan></text><text x="606" y="454" font-size="12" fill="#64748B" font-weight="500" text-anchor="start"><tspan x="606" dy="0">参与 / 支持</tspan></text><rect x="866" y="382" width="270" height="114" rx="8" fill="#EFF6FF" stroke="#2563EB" stroke-width="1.5"/><text x="884" y="424" font-size="15" fill="#1E293B" font-weight="600" text-anchor="start"><tspan x="884" dy="0">开启处理任务</tspan></text><text x="884" y="454" font-size="12" fill="#2563EB" font-weight="500" text-anchor="start"><tspan x="884" dy="0">核心主线</tspan></text><rect x="1144" y="382" width="270" height="114" rx="8" fill="#FFFFFF" stroke="#CBD5E1" stroke-width="1.5"/><text x="1162" y="424" font-size="15" fill="#1E293B" font-weight="500" text-anchor="start"><tspan x="1162" dy="0">处理积压与异常</tspan></text><text x="1162" y="454" font-size="12" fill="#64748B" font-weight="500" text-anchor="start"><tspan x="1162" dy="0">主责</tspan></text><rect x="1422" y="382" width="270" height="114" rx="8" fill="#FFFFFF" stroke="#CBD5E1" stroke-width="1.5" stroke-dasharray="6 7"/><text x="1440" y="424" font-size="15" fill="#1E293B" font-weight="400" text-anchor="start"><tspan x="1440" dy="0">查看交付进度</tspan></text><text x="1440" y="454" font-size="12" fill="#64748B" font-weight="500" text-anchor="start"><tspan x="1440" dy="0">参与 / 支持</tspan></text><rect x="1700" y="382" width="270" height="114" rx="8" fill="#FFFFFF" stroke="#CBD5E1" stroke-width="1.5"/><text x="1718" y="424" font-size="15" fill="#1E293B" font-weight="500" text-anchor="start"><tspan x="1718" dy="0">分析产能与 SLA</tspan></text><text x="1718" y="454" font-size="12" fill="#64748B" font-weight="500" text-anchor="start"><tspan x="1718" dy="0">主责</tspan></text><rect x="34" y="506" width="246" height="114" rx="10" fill="#FFFFFF" stroke="#CBD5E1" stroke-width="1.5"/><text x="54" y="544" font-size="17" fill="#1E293B" font-weight="600" text-anchor="start"><tspan x="54" dy="0">平台管理员</tspan></text><text x="54" y="574" font-size="13" fill="#64748B" font-weight="400" text-anchor="start"><tspan x="54" dy="0">维护平台执行能力</tspan></text><rect x="310" y="506" width="270" height="114" rx="8" fill="#FFFFFF" stroke="#CBD5E1" stroke-width="1.5"/><text x="328" y="548" font-size="15" fill="#1E293B" font-weight="500" text-anchor="start"><tspan x="328" dy="0">准备平台边界</tspan></text><text x="328" y="578" font-size="12" fill="#64748B" font-weight="500" text-anchor="start"><tspan x="328" dy="0">主责</tspan></text><rect x="588" y="506" width="270" height="114" rx="8" fill="#FFFFFF" stroke="#CBD5E1" stroke-width="1.5" stroke-dasharray="6 7"/><text x="606" y="548" font-size="15" fill="#1E293B" font-weight="400" text-anchor="start"><tspan x="606" dy="0">保障接入能力</tspan></text><text x="606" y="578" font-size="12" fill="#64748B" font-weight="500" text-anchor="start"><tspan x="606" dy="0">参与 / 支持</tspan></text><rect x="866" y="506" width="270" height="114" rx="8" fill="#FFFFFF" stroke="#CBD5E1" stroke-width="1.5"/><text x="884" y="548" font-size="15" fill="#1E293B" font-weight="500" text-anchor="start"><tspan x="884" dy="0">发布流程与工作台</tspan></text><text x="884" y="578" font-size="12" fill="#64748B" font-weight="500" text-anchor="start"><tspan x="884" dy="0">主责</tspan></text><rect x="1144" y="506" width="270" height="114" rx="8" fill="#FFFFFF" stroke="#CBD5E1" stroke-width="1.5"/><text x="1162" y="548" font-size="15" fill="#1E293B" font-weight="500" text-anchor="start"><tspan x="1162" dy="0">监控运行与告警</tspan></text><text x="1162" y="578" font-size="12" fill="#64748B" font-weight="500" text-anchor="start"><tspan x="1162" dy="0">主责</tspan></text><rect x="1422" y="506" width="270" height="114" rx="8" fill="#FFFFFF" stroke="#CBD5E1" stroke-width="1.5" stroke-dasharray="6 7"/><text x="1440" y="548" font-size="15" fill="#1E293B" font-weight="400" text-anchor="start"><tspan x="1440" dy="0">控制发布权限</tspan></text><text x="1440" y="578" font-size="12" fill="#64748B" font-weight="500" text-anchor="start"><tspan x="1440" dy="0">参与 / 支持</tspan></text><rect x="1700" y="506" width="270" height="114" rx="8" fill="#FFFFFF" stroke="#CBD5E1" stroke-width="1.5"/><text x="1718" y="548" font-size="15" fill="#1E293B" font-weight="500" text-anchor="start"><tspan x="1718" dy="0">治理权限与审计</tspan></text><text x="1718" y="578" font-size="12" fill="#64748B" font-weight="500" text-anchor="start"><tspan x="1718" dy="0">主责</tspan></text><rect x="34" y="630" width="246" height="114" rx="10" fill="#FFFFFF" stroke="#CBD5E1" stroke-width="1.5"/><text x="54" y="668" font-size="17" fill="#1E293B" font-weight="600" text-anchor="start"><tspan x="54" dy="0">算法 / 数据工程师</tspan></text><text x="54" y="698" font-size="13" fill="#64748B" font-weight="400" text-anchor="start"><tspan x="54" dy="0">建设自动化与数据资产</tspan></text><rect x="310" y="630" width="270" height="114" rx="8" fill="#FFFFFF" stroke="#CBD5E1" stroke-width="1.5"/><text x="328" y="672" font-size="15" fill="#1E293B" font-weight="500" text-anchor="start"><tspan x="328" dy="0">明确样本需求</tspan></text><text x="328" y="702" font-size="12" fill="#64748B" font-weight="500" text-anchor="start"><tspan x="328" dy="0">主责</tspan></text><rect x="588" y="630" width="270" height="114" rx="8" fill="#FFFFFF" stroke="#CBD5E1" stroke-width="1.5" stroke-dasharray="6 7"/><text x="606" y="672" font-size="15" fill="#1E293B" font-weight="400" text-anchor="start"><tspan x="606" dy="0">验证数据格式</tspan></text><text x="606" y="702" font-size="12" fill="#64748B" font-weight="500" text-anchor="start"><tspan x="606" dy="0">参与 / 支持</tspan></text><rect x="866" y="630" width="270" height="114" rx="8" fill="#FFFFFF" stroke="#CBD5E1" stroke-width="1.5"/><text x="884" y="672" font-size="15" fill="#1E293B" font-weight="500" text-anchor="start"><tspan x="884" dy="0">开发算子与规则</tspan></text><text x="884" y="702" font-size="12" fill="#64748B" font-weight="500" text-anchor="start"><tspan x="884" dy="0">主责</tspan></text><rect x="1144" y="630" width="270" height="114" rx="8" fill="#FFFFFF" stroke="#CBD5E1" stroke-width="1.5"/><text x="1162" y="672" font-size="15" fill="#1E293B" font-weight="500" text-anchor="start"><tspan x="1162" dy="0">诊断自动节点</tspan></text><text x="1162" y="702" font-size="12" fill="#64748B" font-weight="500" text-anchor="start"><tspan x="1162" dy="0">主责</tspan></text><rect x="1422" y="630" width="270" height="114" rx="8" fill="#EFF6FF" stroke="#2563EB" stroke-width="1.5"/><text x="1440" y="672" font-size="15" fill="#1E293B" font-weight="600" text-anchor="start"><tspan x="1440" dy="0">构建数据集版本</tspan></text><text x="1440" y="702" font-size="12" fill="#2563EB" font-weight="500" text-anchor="start"><tspan x="1440" dy="0">核心主线</tspan></text><rect x="1700" y="630" width="270" height="114" rx="8" fill="#EFF6FF" stroke="#2563EB" stroke-width="1.5"/><text x="1718" y="672" font-size="15" fill="#1E293B" font-weight="600" text-anchor="start"><tspan x="1718" dy="0">跟踪下游反馈</tspan></text><text x="1718" y="702" font-size="12" fill="#2563EB" font-weight="500" text-anchor="start"><tspan x="1718" dy="0">核心主线</tspan></text><rect x="34" y="754" width="246" height="114" rx="10" fill="#FFFFFF" stroke="#CBD5E1" stroke-width="1.5"/><text x="54" y="792" font-size="17" fill="#1E293B" font-weight="600" text-anchor="start"><tspan x="54" dy="0">供应商管理员</tspan></text><text x="54" y="822" font-size="13" fill="#64748B" font-weight="400" text-anchor="start"><tspan x="54" dy="0">维护本组织人员和产能</tspan></text><rect x="310" y="754" width="270" height="114" rx="8" fill="#FFFFFF" stroke="#CBD5E1" stroke-width="1.5" stroke-dasharray="6 7"/><text x="328" y="796" font-size="15" fill="#1E293B" font-weight="400" text-anchor="start"><tspan x="328" dy="0">确认承接范围</tspan></text><text x="328" y="826" font-size="12" fill="#64748B" font-weight="500" text-anchor="start"><tspan x="328" dy="0">参与 / 支持</tspan></text><rect x="588" y="754" width="270" height="114" rx="8" fill="#FFFFFF" stroke="#CBD5E1" stroke-width="1.5"/><text x="606" y="796" font-size="15" fill="#1E293B" font-weight="500" text-anchor="start"><tspan x="606" dy="0">查看组织数据</tspan></text><text x="606" y="826" font-size="12" fill="#64748B" font-weight="500" text-anchor="start"><tspan x="606" dy="0">主责</tspan></text><rect x="866" y="754" width="270" height="114" rx="8" fill="#FFFFFF" stroke="#CBD5E1" stroke-width="1.5"/><text x="884" y="796" font-size="15" fill="#1E293B" font-weight="500" text-anchor="start"><tspan x="884" dy="0">维护用户组成员</tspan></text><text x="884" y="826" font-size="12" fill="#64748B" font-weight="500" text-anchor="start"><tspan x="884" dy="0">主责</tspan></text><rect x="1144" y="754" width="270" height="114" rx="8" fill="#FFFFFF" stroke="#CBD5E1" stroke-width="1.5"/><text x="1162" y="796" font-size="15" fill="#1E293B" font-weight="500" text-anchor="start"><tspan x="1162" dy="0">处理组内积压</tspan></text><text x="1162" y="826" font-size="12" fill="#64748B" font-weight="500" text-anchor="start"><tspan x="1162" dy="0">主责</tspan></text><rect x="1422" y="754" width="270" height="114" rx="8" fill="#FFFFFF" stroke="#CBD5E1" stroke-width="1.5" stroke-dasharray="6 7"/><text x="1440" y="796" font-size="15" fill="#1E293B" font-weight="400" text-anchor="start"><tspan x="1440" dy="0">确认组织产出</tspan></text><text x="1440" y="826" font-size="12" fill="#64748B" font-weight="500" text-anchor="start"><tspan x="1440" dy="0">参与 / 支持</tspan></text><rect x="1700" y="754" width="270" height="114" rx="8" fill="#FFFFFF" stroke="#CBD5E1" stroke-width="1.5"/><text x="1718" y="796" font-size="15" fill="#1E293B" font-weight="500" text-anchor="start"><tspan x="1718" dy="0">查看效率与异常</tspan></text><text x="1718" y="826" font-size="12" fill="#64748B" font-weight="500" text-anchor="start"><tspan x="1718" dy="0">主责</tspan></text><rect x="34" y="878" width="246" height="114" rx="10" fill="#FFFFFF" stroke="#CBD5E1" stroke-width="1.5"/><text x="54" y="916" font-size="17" fill="#1E293B" font-weight="600" text-anchor="start"><tspan x="54" dy="0">操作员</tspan></text><text x="54" y="946" font-size="13" fill="#64748B" font-weight="400" text-anchor="start"><tspan x="54" dy="0">按用户组领取人工任务</tspan></text><rect x="310" y="878" width="270" height="114" rx="8" fill="#FFFFFF" stroke="#CBD5E1" stroke-width="1" stroke-dasharray="6 7"/><rect x="588" y="878" width="270" height="114" rx="8" fill="#FFFFFF" stroke="#CBD5E1" stroke-width="1" stroke-dasharray="6 7"/><rect x="866" y="878" width="270" height="114" rx="8" fill="#FFFFFF" stroke="#CBD5E1" stroke-width="1.5" stroke-dasharray="6 7"/><text x="884" y="920" font-size="15" fill="#1E293B" font-weight="400" text-anchor="start"><tspan x="884" dy="0">查看任务规则</tspan></text><text x="884" y="950" font-size="12" fill="#64748B" font-weight="500" text-anchor="start"><tspan x="884" dy="0">参与 / 支持</tspan></text><rect x="1144" y="878" width="270" height="114" rx="8" fill="#EFF6FF" stroke="#2563EB" stroke-width="1.5"/><text x="1162" y="920" font-size="15" fill="#1E293B" font-weight="600" text-anchor="start"><tspan x="1162" dy="0">领取 → 工作台 → 提交</tspan></text><text x="1162" y="950" font-size="12" fill="#2563EB" font-weight="500" text-anchor="start"><tspan x="1162" dy="0">核心主线</tspan></text><rect x="1422" y="878" width="270" height="114" rx="8" fill="#FFFFFF" stroke="#CBD5E1" stroke-width="1.5" stroke-dasharray="6 7"/><text x="1440" y="920" font-size="15" fill="#1E293B" font-weight="400" text-anchor="start"><tspan x="1440" dy="0">查看个人结果</tspan></text><text x="1440" y="950" font-size="12" fill="#64748B" font-weight="500" text-anchor="start"><tspan x="1440" dy="0">参与 / 支持</tspan></text><rect x="1700" y="878" width="270" height="114" rx="8" fill="#FFFFFF" stroke="#CBD5E1" stroke-width="1.5" stroke-dasharray="6 7"/><text x="1718" y="920" font-size="15" fill="#1E293B" font-weight="400" text-anchor="start"><tspan x="1718" dy="0">查看个人表现</tspan></text><text x="1718" y="950" font-size="12" fill="#64748B" font-weight="500" text-anchor="start"><tspan x="1718" dy="0">参与 / 支持</tspan></text><text x="40" y="1006" font-size="15" fill="#1E293B" font-weight="600" text-anchor="start"><tspan x="40" dy="0">核心业务主线</tspan></text><circle cx="445.0" cy="1018" r="5.5" fill="#2563EB"/><text x="445.0" y="1050" font-size="13" fill="#1E293B" font-weight="500" text-anchor="middle"><tspan x="445.0" dy="0">配置项目</tspan></text><line x1="452.0" y1="1018" x2="716.0" y2="1018" stroke="#2563EB" stroke-width="1.5" fill="none" marker-end="url(#swimlane-arrow)"/><circle cx="723.0" cy="1018" r="5.5" fill="#2563EB"/><text x="723.0" y="1050" font-size="13" fill="#1E293B" font-weight="500" text-anchor="middle"><tspan x="723.0" dy="0">形成 Recording</tspan></text><line x1="730.0" y1="1018" x2="994.0" y2="1018" stroke="#2563EB" stroke-width="1.5" fill="none" marker-end="url(#swimlane-arrow)"/><circle cx="1001.0" cy="1018" r="5.5" fill="#2563EB"/><text x="1001.0" y="1050" font-size="13" fill="#1E293B" font-weight="500" text-anchor="middle"><tspan x="1001.0" dy="0">开启处理任务</tspan></text><line x1="1008.0" y1="1018" x2="1272.0" y2="1018" stroke="#2563EB" stroke-width="1.5" fill="none" marker-end="url(#swimlane-arrow)"/><circle cx="1279.0" cy="1018" r="5.5" fill="#2563EB"/><text x="1279.0" y="1050" font-size="13" fill="#1E293B" font-weight="500" text-anchor="middle"><tspan x="1279.0" dy="0">运行流程与人工任务</tspan></text><line x1="1286.0" y1="1018" x2="1550.0" y2="1018" stroke="#2563EB" stroke-width="1.5" fill="none" marker-end="url(#swimlane-arrow)"/><circle cx="1557.0" cy="1018" r="5.5" fill="#2563EB"/><text x="1557.0" y="1050" font-size="13" fill="#1E293B" font-weight="500" text-anchor="middle"><tspan x="1557.0" dy="0">发布 Dataset Version</tspan></text><line x1="1564.0" y1="1018" x2="1828.0" y2="1018" stroke="#2563EB" stroke-width="1.5" fill="none" marker-end="url(#swimlane-arrow)"/><circle cx="1835.0" cy="1018" r="5.5" fill="#2563EB"/><text x="1835.0" y="1050" font-size="13" fill="#1E293B" font-weight="500" text-anchor="middle"><tspan x="1835.0" dy="0">消费反馈</tspan></text></svg>
